<?xml version="1.0" encoding="UTF-8"?>
<!DOCTYPE svg
PUBLIC "-//W3C//DTD SVG 1.1//EN"
       "http://www.w3.org/Graphics/SVG/1.1/DTD/svg11.dtd">
<svg viewBox="29 38 1196 492" width="1167px" height="454px" xmlns="http://www.w3.org/2000/svg" version="1.1">
   <line x1="1007" y1="413" x2="1017" y2="413" style="stroke:#333;stroke-width:1;"/>
   <line x1="1069" y1="323" x2="1079" y2="323" style="stroke:#333;stroke-width:1;"/>
   <line x1="1017" y1="413" x2="1069" y2="323" style="stroke:#333;stroke-width:1;"/>
   <line x1="1014.5" y1="413" x2="1010.9644660941" y2="416.53553390593" style="stroke:#333;stroke-width:2;"/>
   <line x1="1014.5" y1="413" x2="1010.9644660941" y2="409.46446609407" style="stroke:#333;stroke-width:2;"/>
   <line x1="1074" y1="323" x2="1070.4644660941" y2="326.53553390593" style="stroke:#333;stroke-width:2;"/>
   <line x1="1074" y1="323" x2="1070.4644660941" y2="319.46446609407" style="stroke:#333;stroke-width:2;"/>
   <line x1="807" y1="371" x2="817" y2="371" style="stroke:#b0b;stroke-width:1;"/>
   <line x1="871" y1="120" x2="881" y2="120" style="stroke:#b0b;stroke-width:1;"/>
   <line x1="817" y1="371" x2="871" y2="120" style="stroke:#b0b;stroke-width:1;"/>
   <line x1="814.5" y1="371" x2="810.96446609407" y2="374.53553390593" style="stroke:#b0b;stroke-width:2;"/>
   <line x1="814.5" y1="371" x2="810.96446609407" y2="367.46446609407" style="stroke:#b0b;stroke-width:2;"/>
   <line x1="876" y1="120" x2="872.46446609407" y2="123.53553390593" style="stroke:#b0b;stroke-width:2;"/>
   <line x1="876" y1="120" x2="872.46446609407" y2="116.46446609407" style="stroke:#b0b;stroke-width:2;"/>
   <line x1="807" y1="391" x2="817" y2="391" style="stroke:#333;stroke-width:1;"/>
   <line x1="891" y1="253" x2="901" y2="253" style="stroke:#333;stroke-width:1;"/>
   <line x1="817" y1="391" x2="891" y2="253" style="stroke:#333;stroke-width:1;"/>
   <line x1="814.5" y1="391" x2="810.96446609407" y2="394.53553390593" style="stroke:#333;stroke-width:2;"/>
   <line x1="814.5" y1="391" x2="810.96446609407" y2="387.46446609407" style="stroke:#333;stroke-width:2;"/>
   <line x1="896" y1="253" x2="892.46446609407" y2="256.53553390593" style="stroke:#333;stroke-width:2;"/>
   <line x1="896" y1="253" x2="892.46446609407" y2="249.46446609407" style="stroke:#333;stroke-width:2;"/>
   <line x1="606" y1="137" x2="616" y2="137" style="stroke:#b0b;stroke-width:1;"/>
   <line x1="667" y1="251" x2="677" y2="251" style="stroke:#b0b;stroke-width:1;"/>
   <line x1="616" y1="137" x2="667" y2="251" style="stroke:#b0b;stroke-width:1;"/>
   <line x1="613.5" y1="137" x2="609.96446609407" y2="140.53553390593" style="stroke:#b0b;stroke-width:2;"/>
   <line x1="613.5" y1="137" x2="609.96446609407" y2="133.46446609407" style="stroke:#b0b;stroke-width:2;"/>
   <line x1="672" y1="251" x2="668.46446609407" y2="254.53553390593" style="stroke:#b0b;stroke-width:2;"/>
   <line x1="672" y1="251" x2="668.46446609407" y2="247.46446609407" style="stroke:#b0b;stroke-width:2;"/>
   <line x1="469" y1="157" x2="459" y2="157" style="stroke:#333;stroke-width:1;"/>
   <line x1="352" y1="226" x2="342" y2="226" style="stroke:#333;stroke-width:1;"/>
   <line x1="459" y1="157" x2="352" y2="226" style="stroke:#333;stroke-width:1;"/>
   <line x1="461.5" y1="157" x2="465.03553390593" y2="160.53553390593" style="stroke:#333;stroke-width:2;"/>
   <line x1="461.5" y1="157" x2="465.03553390593" y2="153.46446609407" style="stroke:#333;stroke-width:2;"/>
   <line x1="347" y1="226" x2="350.53553390593" y2="229.53553390593" style="stroke:#333;stroke-width:2;"/>
   <line x1="347" y1="226" x2="350.53553390593" y2="222.46446609407" style="stroke:#333;stroke-width:2;"/>
   <line x1="469" y1="257" x2="459" y2="257" style="stroke:#b0b;stroke-width:1;"/>
   <line x1="391" y1="89" x2="381" y2="89" style="stroke:#b0b;stroke-width:1;"/>
   <line x1="459" y1="257" x2="391" y2="89" style="stroke:#b0b;stroke-width:1;"/>
   <line x1="461.5" y1="257" x2="465.03553390593" y2="260.53553390593" style="stroke:#b0b;stroke-width:2;"/>
   <line x1="461.5" y1="257" x2="465.03553390593" y2="253.46446609407" style="stroke:#b0b;stroke-width:2;"/>
   <line x1="386" y1="89" x2="389.53553390593" y2="92.535533905933" style="stroke:#b0b;stroke-width:2;"/>
   <line x1="386" y1="89" x2="389.53553390593" y2="85.464466094067" style="stroke:#b0b;stroke-width:2;"/>
   <line x1="161" y1="235" x2="171" y2="235" style="stroke:#c00;stroke-width:1;"/>
   <line x1="223" y1="226" x2="233" y2="226" style="stroke:#c00;stroke-width:1;"/>
   <line x1="171" y1="235" x2="223" y2="226" style="stroke:#c00;stroke-width:1;"/>
   <line x1="168.5" y1="235" x2="164.96446609407" y2="238.53553390593" style="stroke:#c00;stroke-width:2;"/>
   <line x1="168.5" y1="235" x2="164.96446609407" y2="231.46446609407" style="stroke:#c00;stroke-width:2;"/>
   <line x1="228" y1="226" x2="224.46446609407" y2="229.53553390593" style="stroke:#c00;stroke-width:2;"/>
   <line x1="228" y1="226" x2="224.46446609407" y2="222.46446609407" style="stroke:#c00;stroke-width:2;"/>
   <line x1="161" y1="255" x2="171" y2="255" style="stroke:#c00;stroke-width:1;"/>
   <line x1="223" y1="226" x2="233" y2="226" style="stroke:#c00;stroke-width:1;"/>
   <line x1="171" y1="255" x2="223" y2="226" style="stroke:#c00;stroke-width:1;"/>
   <line x1="168.5" y1="255" x2="164.96446609407" y2="258.53553390593" style="stroke:#c00;stroke-width:2;"/>
   <line x1="168.5" y1="255" x2="164.96446609407" y2="251.46446609407" style="stroke:#c00;stroke-width:2;"/>
   <line x1="228" y1="226" x2="224.46446609407" y2="229.53553390593" style="stroke:#c00;stroke-width:2;"/>
   <line x1="228" y1="226" x2="224.46446609407" y2="222.46446609407" style="stroke:#c00;stroke-width:2;"/>
   <line x1="233" y1="286" x2="223" y2="286" style="stroke:#333;stroke-width:1;"/>
   <line x1="237" y1="407" x2="247" y2="407" style="stroke:#333;stroke-width:1;"/>
   <line x1="223" y1="286" x2="237" y2="407" style="stroke:#333;stroke-width:1;"/>
   <line x1="225.5" y1="286" x2="229.03553390593" y2="289.53553390593" style="stroke:#333;stroke-width:2;"/>
   <line x1="225.5" y1="286" x2="229.03553390593" y2="282.46446609407" style="stroke:#333;stroke-width:2;"/>
   <line x1="242" y1="407" x2="238.46446609407" y2="410.53553390593" style="stroke:#333;stroke-width:2;"/>
   <line x1="242" y1="407" x2="238.46446609407" y2="403.46446609407" style="stroke:#333;stroke-width:2;"/>
   <line x1="251" y1="109" x2="241" y2="109" style="stroke:#bbb;stroke-width:1;"/>
   <line x1="223" y1="226" x2="233" y2="226" style="stroke:#bbb;stroke-width:1;"/>
   <line x1="241" y1="109" x2="223" y2="226" style="stroke:#bbb;stroke-width:1;"/>
   <line x1="243.5" y1="109" x2="247.03553390593" y2="112.53553390593" style="stroke:#bbb;stroke-width:2;"/>
   <line x1="243.5" y1="109" x2="247.03553390593" y2="105.46446609407" style="stroke:#bbb;stroke-width:2;"/>
   <line x1="228" y1="226" x2="224.46446609407" y2="229.53553390593" style="stroke:#bbb;stroke-width:2;"/>
   <line x1="228" y1="226" x2="224.46446609407" y2="222.46446609407" style="stroke:#bbb;stroke-width:2;"/>
   <line x1="251" y1="129" x2="241" y2="129" style="stroke:#cb0;stroke-width:1;"/>
   <line x1="164" y1="83" x2="154" y2="83" style="stroke:#cb0;stroke-width:1;"/>
   <line x1="241" y1="129" x2="164" y2="83" style="stroke:#cb0;stroke-width:1;"/>
   <line x1="243.5" y1="129" x2="247.03553390593" y2="132.53553390593" style="stroke:#cb0;stroke-width:2;"/>
   <line x1="243.5" y1="129" x2="247.03553390593" y2="125.46446609407" style="stroke:#cb0;stroke-width:2;"/>
   <line x1="159" y1="83" x2="162.53553390593" y2="86.535533905933" style="stroke:#cb0;stroke-width:2;"/>
   <line x1="159" y1="83" x2="162.53553390593" y2="79.464466094067" style="stroke:#cb0;stroke-width:2;"/>
   <rect width="135" height="20" x="247" y="377" style="fill:#007;stroke:black;"/>
   <text width="135" height="20" x="252" y="391" style="fill:#fff;" font-family="Arial" font-size="16px"> categoria_produto</text>
   <rect width="135" height="20" x="247" y="397" style="fill:#aea;stroke:black;"/>
   <text width="135" height="20" x="252" y="411" style="fill:black;" font-family="Arial" font-size="16px">id_categoria</text>
   <rect width="135" height="20" x="247" y="417" style="fill:none;stroke:black;"/>
   <text width="135" height="20" x="252" y="431" style="fill:black;" font-family="Arial" font-size="16px">nome_categorai</text>
   <rect width="135" height="20" x="247" y="437" style="fill:none;stroke:black;"/>
   <text width="135" height="20" x="252" y="451" style="fill:black;" font-family="Arial" font-size="16px">gerar_pedido</text>
   <rect width="135" height="20" x="247" y="457" style="fill:none;stroke:black;"/>
   <text width="135" height="20" x="252" y="471" style="fill:black;" font-family="Arial" font-size="16px">fg_ativo</text>
   <rect width="102" height="20" x="1079" y="293" style="fill:#007;stroke:black;"/>
   <text width="102" height="20" x="1084" y="307" style="fill:#fff;" font-family="Arial" font-size="16px"> cidade</text>
   <rect width="102" height="20" x="1079" y="313" style="fill:#aea;stroke:black;"/>
   <text width="102" height="20" x="1084" y="327" style="fill:black;" font-family="Arial" font-size="16px">id_cidade</text>
   <rect width="102" height="20" x="1079" y="333" style="fill:none;stroke:black;"/>
   <text width="102" height="20" x="1084" y="347" style="fill:black;" font-family="Arial" font-size="16px">nome_cidade</text>
   <rect width="102" height="20" x="1079" y="353" style="fill:none;stroke:black;"/>
   <text width="102" height="20" x="1084" y="367" style="fill:black;" font-family="Arial" font-size="16px">estado</text>
   <rect width="102" height="20" x="1079" y="373" style="fill:none;stroke:black;"/>
   <text width="102" height="20" x="1084" y="387" style="fill:black;" font-family="Arial" font-size="16px">sigla_estado</text>
   <rect width="102" height="20" x="1079" y="393" style="fill:none;stroke:black;"/>
   <text width="102" height="20" x="1084" y="407" style="fill:black;" font-family="Arial" font-size="16px">fg_ativo</text>
   <rect width="106" height="20" x="901" y="223" style="fill:#007;stroke:black;"/>
   <text width="106" height="20" x="906" y="237" style="fill:#fff;" font-family="Arial" font-size="16px"> cliente</text>
   <rect width="106" height="20" x="901" y="243" style="fill:#aea;stroke:black;"/>
   <text width="106" height="20" x="906" y="257" style="fill:black;" font-family="Arial" font-size="16px">id_cliente</text>
   <rect width="106" height="20" x="901" y="263" style="fill:none;stroke:black;"/>
   <text width="106" height="20" x="906" y="277" style="fill:black;" font-family="Arial" font-size="16px">nome_cliente</text>
   <rect width="106" height="20" x="901" y="283" style="fill:none;stroke:black;"/>
   <text width="106" height="20" x="906" y="297" style="fill:black;" font-family="Arial" font-size="16px">email</text>
   <rect width="106" height="20" x="901" y="303" style="fill:none;stroke:black;"/>
   <text width="106" height="20" x="906" y="317" style="fill:black;" font-family="Arial" font-size="16px">telefone</text>
   <rect width="106" height="20" x="901" y="323" style="fill:none;stroke:black;"/>
   <text width="106" height="20" x="906" y="337" style="fill:black;" font-family="Arial" font-size="16px">endereco</text>
   <rect width="106" height="20" x="901" y="343" style="fill:none;stroke:black;"/>
   <text width="106" height="20" x="906" y="357" style="fill:black;" font-family="Arial" font-size="16px">numero</text>
   <rect width="106" height="20" x="901" y="363" style="fill:none;stroke:black;"/>
   <text width="106" height="20" x="906" y="377" style="fill:black;" font-family="Arial" font-size="16px">cep</text>
   <rect width="106" height="20" x="901" y="383" style="fill:none;stroke:black;"/>
   <text width="106" height="20" x="906" y="397" style="fill:black;" font-family="Arial" font-size="16px">complemento</text>
   <rect width="106" height="20" x="901" y="403" style="fill:none;stroke:black;"/>
   <text width="106" height="20" x="906" y="417" style="fill:black;" font-family="Arial" font-size="16px">id_cidade</text>
   <rect width="106" height="20" x="901" y="423" style="fill:none;stroke:black;"/>
   <text width="106" height="20" x="906" y="437" style="fill:black;" font-family="Arial" font-size="16px">fg_ativo</text>
   <rect width="130" height="20" x="677" y="221" style="fill:#007;stroke:black;"/>
   <text width="130" height="20" x="682" y="235" style="fill:#fff;" font-family="Arial" font-size="16px"> comanda</text>
   <rect width="130" height="20" x="677" y="241" style="fill:#aea;stroke:black;"/>
   <text width="130" height="20" x="682" y="255" style="fill:black;" font-family="Arial" font-size="16px">id_comanda</text>
   <rect width="130" height="20" x="677" y="261" style="fill:none;stroke:black;"/>
   <text width="130" height="20" x="682" y="275" style="fill:black;" font-family="Arial" font-size="16px">ref_comanda</text>
   <rect width="130" height="20" x="677" y="281" style="fill:none;stroke:black;"/>
   <text width="130" height="20" x="682" y="295" style="fill:black;" font-family="Arial" font-size="16px">status</text>
   <rect width="130" height="20" x="677" y="301" style="fill:none;stroke:black;"/>
   <text width="130" height="20" x="682" y="315" style="fill:black;" font-family="Arial" font-size="16px">data</text>
   <rect width="130" height="20" x="677" y="321" style="fill:none;stroke:black;"/>
   <text width="130" height="20" x="682" y="335" style="fill:black;" font-family="Arial" font-size="16px">observacao</text>
   <rect width="130" height="20" x="677" y="341" style="fill:none;stroke:black;"/>
   <text width="130" height="20" x="682" y="355" style="fill:black;" font-family="Arial" font-size="16px">tipo_comanda</text>
   <rect width="130" height="20" x="677" y="361" style="fill:none;stroke:black;"/>
   <text width="130" height="20" x="682" y="375" style="fill:black;" font-family="Arial" font-size="16px">id_mesa</text>
   <rect width="130" height="20" x="677" y="381" style="fill:none;stroke:black;"/>
   <text width="130" height="20" x="682" y="395" style="fill:black;" font-family="Arial" font-size="16px">id_cliente_viagem</text>
   <rect width="137" height="20" x="469" y="107" style="fill:#007;stroke:black;"/>
   <text width="137" height="20" x="474" y="121" style="fill:#fff;" font-family="Arial" font-size="16px"> comanda_produto</text>
   <rect width="137" height="20" x="469" y="127" style="fill:none;stroke:black;"/>
   <text width="137" height="20" x="474" y="141" style="fill:black;" font-family="Arial" font-size="16px">id_comanda</text>
   <rect width="137" height="20" x="469" y="147" style="fill:none;stroke:black;"/>
   <text width="137" height="20" x="474" y="161" style="fill:black;" font-family="Arial" font-size="16px">id_produto</text>
   <rect width="137" height="20" x="469" y="167" style="fill:none;stroke:black;"/>
   <text width="137" height="20" x="474" y="181" style="fill:black;" font-family="Arial" font-size="16px">gerar_pedido</text>
   <rect width="137" height="20" x="469" y="187" style="fill:none;stroke:black;"/>
   <text width="137" height="20" x="474" y="201" style="fill:black;" font-family="Arial" font-size="16px">data_pedido</text>
   <rect width="137" height="20" x="469" y="207" style="fill:none;stroke:black;"/>
   <text width="137" height="20" x="474" y="221" style="fill:black;" font-family="Arial" font-size="16px">status_pedido</text>
   <rect width="137" height="20" x="469" y="227" style="fill:none;stroke:black;"/>
   <text width="137" height="20" x="474" y="241" style="fill:black;" font-family="Arial" font-size="16px">quantidade</text>
   <rect width="137" height="20" x="469" y="247" style="fill:none;stroke:black;"/>
   <text width="137" height="20" x="474" y="261" style="fill:black;" font-family="Arial" font-size="16px">id_tabela_produto</text>
   <rect width="137" height="20" x="469" y="267" style="fill:none;stroke:black;"/>
   <text width="137" height="20" x="474" y="281" style="fill:black;" font-family="Arial" font-size="16px">observacao</text>
   <rect width="137" height="20" x="469" y="287" style="fill:none;stroke:black;"/>
   <text width="137" height="20" x="474" y="301" style="fill:black;" font-family="Arial" font-size="16px">fg_ativo</text>
   <rect width="117" height="20" x="44" y="205" style="fill:#007;stroke:black;"/>
   <text width="117" height="20" x="49" y="219" style="fill:#fff;" font-family="Arial" font-size="16px"> item_produto</text>
   <rect width="117" height="20" x="44" y="225" style="fill:none;stroke:black;"/>
   <text width="117" height="20" x="49" y="239" style="fill:black;" font-family="Arial" font-size="16px">id_produto</text>
   <rect width="117" height="20" x="44" y="245" style="fill:none;stroke:black;"/>
   <text width="117" height="20" x="49" y="259" style="fill:black;" font-family="Arial" font-size="16px">id_produto_item</text>
   <rect width="94" height="20" x="881" y="90" style="fill:#007;stroke:black;"/>
   <text width="94" height="20" x="886" y="104" style="fill:#fff;" font-family="Arial" font-size="16px"> mesa</text>
   <rect width="94" height="20" x="881" y="110" style="fill:#aea;stroke:black;"/>
   <text width="94" height="20" x="886" y="124" style="fill:black;" font-family="Arial" font-size="16px">id_mesa</text>
   <rect width="94" height="20" x="881" y="130" style="fill:none;stroke:black;"/>
   <text width="94" height="20" x="886" y="144" style="fill:black;" font-family="Arial" font-size="16px">nome_mesa</text>
   <rect width="94" height="20" x="881" y="150" style="fill:none;stroke:black;"/>
   <text width="94" height="20" x="886" y="164" style="fill:black;" font-family="Arial" font-size="16px">fg_ativo</text>
   <rect width="109" height="20" x="233" y="196" style="fill:#007;stroke:black;"/>
   <text width="109" height="20" x="238" y="210" style="fill:#fff;" font-family="Arial" font-size="16px"> produto</text>
   <rect width="109" height="20" x="233" y="216" style="fill:#aea;stroke:black;"/>
   <text width="109" height="20" x="238" y="230" style="fill:black;" font-family="Arial" font-size="16px">id_produto</text>
   <rect width="109" height="20" x="233" y="236" style="fill:none;stroke:black;"/>
   <text width="109" height="20" x="238" y="250" style="fill:black;" font-family="Arial" font-size="16px">nome_produto</text>
   <rect width="109" height="20" x="233" y="256" style="fill:none;stroke:black;"/>
   <text width="109" height="20" x="238" y="270" style="fill:black;" font-family="Arial" font-size="16px">ref_produto</text>
   <rect width="109" height="20" x="233" y="276" style="fill:none;stroke:black;"/>
   <text width="109" height="20" x="238" y="290" style="fill:black;" font-family="Arial" font-size="16px">id_categoria</text>
   <rect width="109" height="20" x="233" y="296" style="fill:none;stroke:black;"/>
   <text width="109" height="20" x="238" y="310" style="fill:black;" font-family="Arial" font-size="16px">fg_ativo</text>
   <rect width="99" height="20" x="55" y="53" style="fill:#007;stroke:black;"/>
   <text width="99" height="20" x="60" y="67" style="fill:#fff;" font-family="Arial" font-size="16px"> tabela_preco</text>
   <rect width="99" height="20" x="55" y="73" style="fill:#aea;stroke:black;"/>
   <text width="99" height="20" x="60" y="87" style="fill:black;" font-family="Arial" font-size="16px">id_tabela</text>
   <rect width="99" height="20" x="55" y="93" style="fill:none;stroke:black;"/>
   <text width="99" height="20" x="60" y="107" style="fill:black;" font-family="Arial" font-size="16px">nome_tabela</text>
   <rect width="99" height="20" x="55" y="113" style="fill:none;stroke:black;"/>
   <text width="99" height="20" x="60" y="127" style="fill:black;" font-family="Arial" font-size="16px">fg_ativo</text>
   <rect width="130" height="20" x="251" y="59" style="fill:#007;stroke:black;"/>
   <text width="130" height="20" x="256" y="73" style="fill:#fff;" font-family="Arial" font-size="16px"> tabela_produto</text>
   <rect width="130" height="20" x="251" y="79" style="fill:#aea;stroke:black;"/>
   <text width="130" height="20" x="256" y="93" style="fill:black;" font-family="Arial" font-size="16px">id_tabela_produto</text>
   <rect width="130" height="20" x="251" y="99" style="fill:none;stroke:black;"/>
   <text width="130" height="20" x="256" y="113" style="fill:black;" font-family="Arial" font-size="16px">id_produto</text>
   <rect width="130" height="20" x="251" y="119" style="fill:none;stroke:black;"/>
   <text width="130" height="20" x="256" y="133" style="fill:black;" font-family="Arial" font-size="16px">id_tabela</text>
   <rect width="130" height="20" x="251" y="139" style="fill:none;stroke:black;"/>
   <text width="130" height="20" x="256" y="153" style="fill:black;" font-family="Arial" font-size="16px">valor</text>
</svg>
